<svg xmlns="http://www.w3.org/2000/svg" viewBox="0 0 1536 1024">
<g fill="rgb(74,28,117)" fill-rule="evenodd">
<path d="M 912,270 L 910,271 L 908,271 L 906,272 L 904,272 L 902,273 L 900,274 L 898,275 L 896,276 L 894,277 L 892,279 L 891,281 L 889,283 L 888,285 L 887,287 L 886,289 L 885,291 L 884,293 L 884,295 L 883,297 L 882,299 L 881,301 L 880,303 L 879,305 L 878,307 L 877,309 L 876,311 L 875,313 L 874,315 L 873,317 L 873,319 L 872,321 L 871,323 L 870,325 L 869,327 L 868,329 L 867,331 L 866,333 L 866,335 L 865,337 L 864,339 L 863,341 L 862,343 L 861,345 L 859,345 L 857,345 L 855,346 L 853,346 L 851,346 L 849,347 L 847,347 L 845,348 L 843,349 L 841,349 L 839,350 L 837,351 L 835,352 L 833,353 L 831,355 L 829,356 L 828,358 L 826,360 L 825,362 L 824,364 L 823,366 L 823,368 L 823,370 L 825,371 L 827,371 L 829,370 L 831,370 L 833,369 L 835,369 L 837,368 L 839,368 L 841,367 L 843,367 L 845,367 L 847,367 L 849,368 L 849,370 L 849,372 L 849,374 L 848,376 L 847,378 L 846,380 L 845,382 L 844,384 L 843,386 L 842,388 L 842,390 L 841,392 L 840,394 L 839,396 L 838,398 L 837,400 L 836,402 L 836,404 L 835,406 L 834,408 L 833,410 L 832,412 L 831,414 L 830,416 L 830,418 L 829,420 L 828,422 L 827,424 L 826,426 L 825,428 L 825,430 L 824,432 L 823,434 L 822,436 L 821,438 L 821,440 L 820,442 L 819,444 L 818,446 L 818,448 L 817,450 L 816,452 L 815,454 L 813,456 L 812,458 L 810,460 L 809,462 L 807,464 L 806,466 L 804,468 L 803,470 L 801,472 L 799,474 L 798,476 L 796,478 L 794,480 L 793,482 L 791,484 L 789,486 L 787,488 L 785,490 L 783,492 L 781,494 L 779,496 L 777,498 L 775,499 L 773,501 L 771,503 L 769,504 L 767,505 L 765,506 L 763,507 L 761,507 L 759,507 L 757,506 L 757,504 L 757,502 L 757,500 L 757,498 L 758,496 L 758,494 L 759,492 L 760,490 L 760,488 L 761,486 L 762,484 L 763,482 L 764,480 L 764,478 L 765,476 L 766,474 L 767,472 L 768,470 L 769,468 L 770,466 L 771,464 L 772,462 L 773,460 L 774,458 L 775,456 L 775,454 L 776,452 L 777,450 L 778,448 L 779,446 L 780,444 L 781,442 L 782,440 L 783,438 L 784,436 L 785,434 L 786,432 L 787,430 L 788,428 L 789,426 L 790,424 L 791,422 L 792,420 L 793,418 L 794,416 L 795,414 L 796,412 L 796,410 L 797,408 L 797,406 L 798,404 L 797,402 L 797,400 L 796,398 L 794,396 L 792,395 L 790,394 L 788,393 L 786,393 L 784,392 L 782,392 L 780,391 L 778,391 L 776,391 L 774,391 L 772,391 L 770,392 L 768,392 L 766,392 L 764,393 L 762,393 L 760,394 L 758,394 L 756,395 L 754,396 L 752,397 L 750,399 L 750,401 L 750,403 L 750,405 L 750,407 L 749,409 L 748,411 L 747,413 L 746,415 L 745,417 L 745,419 L 744,421 L 743,423 L 742,425 L 741,427 L 740,429 L 739,431 L 738,433 L 737,435 L 736,437 L 735,439 L 734,441 L 733,443 L 733,445 L 732,447 L 731,449 L 730,451 L 729,453 L 728,455 L 727,457 L 726,459 L 725,461 L 724,463 L 724,465 L 723,467 L 722,469 L 721,471 L 720,473 L 719,475 L 718,477 L 718,479 L 717,481 L 716,483 L 715,485 L 714,487 L 714,489 L 713,491 L 712,493 L 711,495 L 711,497 L 710,499 L 710,501 L 709,503 L 709,505 L 708,507 L 708,509 L 708,511 L 708,513 L 708,515 L 708,517 L 708,519 L 709,521 L 709,523 L 710,525 L 711,527 L 712,529 L 714,531 L 715,533 L 717,534 L 719,535 L 721,536 L 723,537 L 725,537 L 727,538 L 729,538 L 731,538 L 733,538 L 735,538 L 737,538 L 739,538 L 741,538 L 743,538 L 745,537 L 747,537 L 749,536 L 751,536 L 753,535 L 755,534 L 757,533 L 759,532 L 761,531 L 763,530 L 765,529 L 767,527 L 769,526 L 771,525 L 773,523 L 775,521 L 777,520 L 779,518 L 781,516 L 783,515 L 785,513 L 787,511 L 789,509 L 791,507 L 792,505 L 794,503 L 796,501 L 798,499 L 800,498 L 802,498 L 804,499 L 804,501 L 804,503 L 804,505 L 804,507 L 804,509 L 804,511 L 804,513 L 805,515 L 805,517 L 806,519 L 806,521 L 808,523 L 809,525 L 810,527 L 812,529 L 814,530 L 816,532 L 818,533 L 820,534 L 822,534 L 824,535 L 826,535 L 828,536 L 830,536 L 832,536 L 834,536 L 836,536 L 838,536 L 840,536 L 842,536 L 844,536 L 846,535 L 848,535 L 850,534 L 852,534 L 854,533 L 856,532 L 858,531 L 860,530 L 862,529 L 864,528 L 866,527 L 868,526 L 870,525 L 872,523 L 874,522 L 876,520 L 878,518 L 880,517 L 882,515 L 884,513 L 886,511 L 888,509 L 890,507 L 892,507 L 894,507 L 895,509 L 896,511 L 896,513 L 897,515 L 897,517 L 898,519 L 900,521 L 901,523 L 902,525 L 904,527 L 906,528 L 908,530 L 910,531 L 912,532 L 914,533 L 916,533 L 918,534 L 920,534 L 922,534 L 924,534 L 926,534 L 928,534 L 930,534 L 932,534 L 934,534 L 936,534 L 938,533 L 940,533 L 942,532 L 944,531 L 946,531 L 948,530 L 950,529 L 952,528 L 954,527 L 956,526 L 958,525 L 960,524 L 962,522 L 964,521 L 966,520 L 968,518 L 970,516 L 972,515 L 974,513 L 976,511 L 978,509 L 980,507 L 982,505 L 984,503 L 986,501 L 987,499 L 989,497 L 991,495 L 993,493 L 994,491 L 996,491 L 998,491 L 999,493 L 999,495 L 998,497 L 998,499 L 998,501 L 998,503 L 998,505 L 999,507 L 999,509 L 999,511 L 1000,513 L 1000,515 L 1001,517 L 1002,519 L 1003,521 L 1005,523 L 1007,525 L 1009,527 L 1011,528 L 1013,529 L 1015,530 L 1017,531 L 1019,532 L 1021,532 L 1023,533 L 1025,533 L 1027,533 L 1029,533 L 1031,533 L 1033,533 L 1035,533 L 1037,533 L 1039,532 L 1041,532 L 1043,532 L 1045,531 L 1047,531 L 1049,530 L 1051,529 L 1053,529 L 1055,528 L 1057,527 L 1059,526 L 1061,525 L 1063,524 L 1065,523 L 1067,521 L 1069,520 L 1071,519 L 1073,518 L 1075,516 L 1077,514 L 1079,513 L 1081,511 L 1083,509 L 1085,508 L 1087,506 L 1089,504 L 1091,503 L 1093,501 L 1095,499 L 1097,498 L 1099,496 L 1101,494 L 1103,493 L 1105,491 L 1107,489 L 1109,488 L 1111,486 L 1113,485 L 1115,483 L 1117,482 L 1119,480 L 1121,479 L 1123,477 L 1125,476 L 1127,475 L 1129,473 L 1131,472 L 1133,471 L 1135,470 L 1137,469 L 1139,468 L 1141,467 L 1143,466 L 1145,465 L 1147,465 L 1149,464 L 1151,463 L 1153,463 L 1155,462 L 1157,462 L 1159,462 L 1161,462 L 1163,462 L 1165,462 L 1167,462 L 1169,462 L 1171,463 L 1173,464 L 1175,466 L 1177,467 L 1178,469 L 1179,471 L 1180,473 L 1181,475 L 1182,477 L 1182,479 L 1182,481 L 1182,483 L 1182,485 L 1181,487 L 1181,489 L 1181,491 L 1180,493 L 1180,495 L 1179,497 L 1178,499 L 1178,501 L 1177,503 L 1176,505 L 1175,507 L 1174,509 L 1172,511 L 1171,513 L 1170,515 L 1168,517 L 1166,519 L 1164,521 L 1163,523 L 1161,525 L 1159,526 L 1157,528 L 1155,530 L 1153,532 L 1151,533 L 1149,535 L 1147,536 L 1145,537 L 1143,539 L 1141,540 L 1139,541 L 1137,542 L 1135,543 L 1133,544 L 1131,545 L 1129,547 L 1127,547 L 1125,548 L 1123,549 L 1121,550 L 1119,551 L 1117,552 L 1115,553 L 1113,553 L 1111,554 L 1109,555 L 1107,556 L 1105,557 L 1103,557 L 1101,558 L 1099,559 L 1097,559 L 1095,560 L 1093,560 L 1091,561 L 1089,562 L 1087,562 L 1085,563 L 1083,563 L 1081,564 L 1079,564 L 1077,565 L 1075,565 L 1073,566 L 1071,566 L 1069,567 L 1067,567 L 1065,568 L 1063,568 L 1061,568 L 1059,569 L 1057,569 L 1055,570 L 1053,570 L 1051,570 L 1049,571 L 1047,571 L 1045,571 L 1043,572 L 1041,572 L 1039,572 L 1037,573 L 1035,573 L 1033,573 L 1031,573 L 1029,574 L 1027,574 L 1025,574 L 1023,574 L 1021,575 L 1019,575 L 1017,575 L 1015,575 L 1013,576 L 1011,576 L 1009,576 L 1007,576 L 1005,576 L 1003,576 L 1001,577 L 999,577 L 997,577 L 995,577 L 993,577 L 991,577 L 989,577 L 987,578 L 985,578 L 983,578 L 981,578 L 979,578 L 977,578 L 975,578 L 973,578 L 971,578 L 969,578 L 967,578 L 965,578 L 963,578 L 961,579 L 959,579 L 957,579 L 955,579 L 953,579 L 951,579 L 949,579 L 947,579 L 945,578 L 943,578 L 941,578 L 939,578 L 937,578 L 935,578 L 933,578 L 931,578 L 929,578 L 927,578 L 925,578 L 923,578 L 921,577 L 919,577 L 917,577 L 915,577 L 913,577 L 911,577 L 909,577 L 907,577 L 905,576 L 903,576 L 901,576 L 899,576 L 897,576 L 895,576 L 893,576 L 891,576 L 889,575 L 887,575 L 885,575 L 883,575 L 881,575 L 879,575 L 877,575 L 875,574 L 873,574 L 871,574 L 869,574 L 867,573 L 865,573 L 863,573 L 861,573 L 859,573 L 857,572 L 855,572 L 853,572 L 851,572 L 849,572 L 847,571 L 845,571 L 843,571 L 841,571 L 839,570 L 837,570 L 835,570 L 833,570 L 831,570 L 829,569 L 827,569 L 825,569 L 823,569 L 821,568 L 819,568 L 817,568 L 815,568 L 813,568 L 811,567 L 809,567 L 807,567 L 805,567 L 803,567 L 801,566 L 799,566 L 797,566 L 795,566 L 793,566 L 791,566 L 789,565 L 787,565 L 785,565 L 783,565 L 781,565 L 779,564 L 777,564 L 775,564 L 773,564 L 771,564 L 769,564 L 767,564 L 765,563 L 763,563 L 761,563 L 759,563 L 757,563 L 755,563 L 753,563 L 751,563 L 749,562 L 747,562 L 745,562 L 743,562 L 741,562 L 739,562 L 737,562 L 735,562 L 733,562 L 731,562 L 729,562 L 727,562 L 725,562 L 723,562 L 721,562 L 719,562 L 717,562 L 715,562 L 713,562 L 711,562 L 709,562 L 707,562 L 705,562 L 703,562 L 701,562 L 699,562 L 697,562 L 695,562 L 693,562 L 691,562 L 689,562 L 687,562 L 685,562 L 683,562 L 681,562 L 679,562 L 677,562 L 675,562 L 673,562 L 671,562 L 669,563 L 667,563 L 665,563 L 663,563 L 661,563 L 659,563 L 657,564 L 655,564 L 653,564 L 651,564 L 649,564 L 647,564 L 645,565 L 643,565 L 641,565 L 639,565 L 637,565 L 635,566 L 633,566 L 631,566 L 629,566 L 627,567 L 625,567 L 623,567 L 621,568 L 619,568 L 617,568 L 615,569 L 613,569 L 611,569 L 609,570 L 607,570 L 605,570 L 603,571 L 601,571 L 599,571 L 597,572 L 595,572 L 593,573 L 591,573 L 589,574 L 587,574 L 585,575 L 583,575 L 581,576 L 579,576 L 577,577 L 575,577 L 573,578 L 571,578 L 569,579 L 567,580 L 565,580 L 563,581 L 561,582 L 559,582 L 557,583 L 555,584 L 553,584 L 551,585 L 549,586 L 547,586 L 545,587 L 543,588 L 541,589 L 539,590 L 537,590 L 535,591 L 533,592 L 531,593 L 529,594 L 527,595 L 525,596 L 523,597 L 521,598 L 519,600 L 517,601 L 515,602 L 513,603 L 511,605 L 509,606 L 507,607 L 505,609 L 503,611 L 501,612 L 499,614 L 497,616 L 495,618 L 493,620 L 492,622 L 490,624 L 489,626 L 488,628 L 486,630 L 485,632 L 485,634 L 484,636 L 483,638 L 483,640 L 482,642 L 482,644 L 482,646 L 482,648 L 482,650 L 482,652 L 483,654 L 483,656 L 484,658 L 485,660 L 486,662 L 487,664 L 489,666 L 490,668 L 492,670 L 494,671 L 496,673 L 498,674 L 500,675 L 502,676 L 504,677 L 506,678 L 508,679 L 510,680 L 512,680 L 514,681 L 516,682 L 518,682 L 520,683 L 522,683 L 524,683 L 526,684 L 528,684 L 530,684 L 532,685 L 534,685 L 536,685 L 538,686 L 540,686 L 542,686 L 544,686 L 546,687 L 548,687 L 550,687 L 552,687 L 554,687 L 556,687 L 558,687 L 560,687 L 562,687 L 564,687 L 566,687 L 568,687 L 570,687 L 572,687 L 574,687 L 576,687 L 578,686 L 580,686 L 582,686 L 584,686 L 586,685 L 588,685 L 590,685 L 592,685 L 594,684 L 596,684 L 598,684 L 600,683 L 602,683 L 604,683 L 606,682 L 608,682 L 610,682 L 612,681 L 614,681 L 616,680 L 618,680 L 620,679 L 622,679 L 624,678 L 626,678 L 628,678 L 630,677 L 632,676 L 634,676 L 636,675 L 638,675 L 640,674 L 642,674 L 644,673 L 646,672 L 648,672 L 650,671 L 652,671 L 654,670 L 656,669 L 658,669 L 660,668 L 662,667 L 664,667 L 666,666 L 668,665 L 670,664 L 672,664 L 674,663 L 676,662 L 678,662 L 680,661 L 682,660 L 684,659 L 686,659 L 688,658 L 690,657 L 692,656 L 694,656 L 696,655 L 698,654 L 700,653 L 702,653 L 704,652 L 706,651 L 708,650 L 710,650 L 712,649 L 714,648 L 716,647 L 718,647 L 720,646 L 722,645 L 724,645 L 726,644 L 728,643 L 730,642 L 732,642 L 734,641 L 736,640 L 738,639 L 740,639 L 742,638 L 744,637 L 746,637 L 748,636 L 750,635 L 752,635 L 754,634 L 756,633 L 758,633 L 760,632 L 762,632 L 764,631 L 766,631 L 768,630 L 770,629 L 772,629 L 774,628 L 776,628 L 778,627 L 780,627 L 782,627 L 784,626 L 786,626 L 788,625 L 790,625 L 792,625 L 794,624 L 796,624 L 798,624 L 800,623 L 802,623 L 804,623 L 806,623 L 808,623 L 810,623 L 812,623 L 814,623 L 816,623 L 818,623 L 820,623 L 822,623 L 824,623 L 825,621 L 823,620 L 821,620 L 819,619 L 817,619 L 815,618 L 813,618 L 811,618 L 809,618 L 807,618 L 805,618 L 803,618 L 801,618 L 799,618 L 797,618 L 795,618 L 793,618 L 791,618 L 789,618 L 787,618 L 785,618 L 783,619 L 781,619 L 779,619 L 777,619 L 775,620 L 773,620 L 771,620 L 769,621 L 767,621 L 765,621 L 763,622 L 761,622 L 759,623 L 757,623 L 755,624 L 753,624 L 751,625 L 749,625 L 747,626 L 745,626 L 743,627 L 741,627 L 739,628 L 737,629 L 735,629 L 733,630 L 731,630 L 729,631 L 727,632 L 725,632 L 723,633 L 721,633 L 719,634 L 717,635 L 715,635 L 713,636 L 711,637 L 709,637 L 707,638 L 705,639 L 703,639 L 701,640 L 699,641 L 697,641 L 695,642 L 693,643 L 691,644 L 689,644 L 687,645 L 685,645 L 683,646 L 681,647 L 679,647 L 677,648 L 675,649 L 673,649 L 671,650 L 669,651 L 667,651 L 665,652 L 663,653 L 661,653 L 659,654 L 657,654 L 655,655 L 653,656 L 651,656 L 649,657 L 647,658 L 645,658 L 643,659 L 641,659 L 639,660 L 637,661 L 635,661 L 633,662 L 631,662 L 629,663 L 627,663 L 625,664 L 623,664 L 621,665 L 619,665 L 617,665 L 615,666 L 613,666 L 611,667 L 609,667 L 607,668 L 605,668 L 603,668 L 601,669 L 599,669 L 597,669 L 595,669 L 593,670 L 591,670 L 589,670 L 587,670 L 585,670 L 583,671 L 581,671 L 579,671 L 577,671 L 575,671 L 573,671 L 571,671 L 569,670 L 567,670 L 565,670 L 563,670 L 561,670 L 559,670 L 557,669 L 555,669 L 553,669 L 551,668 L 549,668 L 547,667 L 545,667 L 543,666 L 541,666 L 539,665 L 537,665 L 535,664 L 533,662 L 531,661 L 529,659 L 527,657 L 526,655 L 526,653 L 526,651 L 526,649 L 526,647 L 527,645 L 528,643 L 529,641 L 530,639 L 532,637 L 534,635 L 536,633 L 538,632 L 540,630 L 542,629 L 544,628 L 546,626 L 548,625 L 550,624 L 552,623 L 554,622 L 556,621 L 558,620 L 560,619 L 562,618 L 564,618 L 566,617 L 568,616 L 570,615 L 572,615 L 574,614 L 576,613 L 578,612 L 580,612 L 582,611 L 584,611 L 586,610 L 588,609 L 590,609 L 592,608 L 594,608 L 596,607 L 598,607 L 600,606 L 602,606 L 604,605 L 606,605 L 608,604 L 610,604 L 612,604 L 614,603 L 616,603 L 618,602 L 620,602 L 622,602 L 624,601 L 626,601 L 628,601 L 630,600 L 632,600 L 634,600 L 636,599 L 638,599 L 640,599 L 642,599 L 644,598 L 646,598 L 648,598 L 650,598 L 652,598 L 654,597 L 656,597 L 658,597 L 660,597 L 662,597 L 664,597 L 666,597 L 668,597 L 670,597 L 672,597 L 674,597 L 676,597 L 678,597 L 680,597 L 682,597 L 684,597 L 686,597 L 688,597 L 690,597 L 692,597 L 694,597 L 696,597 L 698,597 L 700,597 L 702,596 L 704,596 L 706,596 L 708,596 L 710,596 L 712,596 L 714,596 L 716,596 L 718,596 L 720,596 L 722,596 L 724,597 L 726,597 L 728,597 L 730,597 L 732,597 L 734,597 L 736,597 L 738,598 L 740,598 L 742,598 L 744,598 L 746,598 L 748,598 L 750,598 L 752,598 L 754,599 L 756,599 L 758,599 L 760,599 L 762,599 L 764,600 L 766,600 L 768,600 L 770,600 L 772,600 L 774,601 L 776,601 L 778,601 L 780,601 L 782,601 L 784,601 L 786,602 L 788,602 L 790,602 L 792,602 L 794,603 L 796,603 L 798,603 L 800,603 L 802,603 L 804,604 L 806,604 L 808,604 L 810,604 L 812,605 L 814,605 L 816,605 L 818,605 L 820,606 L 822,606 L 824,606 L 826,607 L 828,607 L 830,607 L 832,607 L 834,608 L 836,608 L 838,608 L 840,609 L 842,609 L 844,609 L 846,609 L 848,610 L 850,610 L 852,610 L 854,610 L 856,611 L 858,611 L 860,611 L 862,611 L 864,612 L 866,612 L 868,612 L 870,612 L 872,612 L 874,612 L 876,613 L 878,613 L 880,613 L 882,613 L 884,613 L 886,614 L 888,614 L 890,614 L 892,614 L 894,614 L 896,614 L 898,614 L 900,614 L 902,614 L 904,614 L 906,615 L 908,615 L 910,615 L 912,615 L 914,615 L 916,615 L 918,615 L 920,615 L 922,615 L 924,615 L 926,615 L 928,615 L 930,615 L 932,615 L 934,615 L 936,615 L 938,615 L 940,615 L 942,615 L 944,615 L 946,615 L 948,615 L 950,615 L 952,615 L 954,615 L 956,616 L 958,615 L 960,615 L 962,615 L 964,615 L 966,615 L 968,615 L 970,615 L 972,615 L 974,615 L 976,615 L 978,614 L 980,614 L 982,614 L 984,614 L 986,614 L 988,614 L 990,614 L 992,613 L 994,613 L 996,613 L 998,613 L 1000,613 L 1002,612 L 1004,612 L 1006,612 L 1008,612 L 1010,611 L 1012,611 L 1014,611 L 1016,611 L 1018,610 L 1020,610 L 1022,610 L 1024,609 L 1026,609 L 1028,609 L 1030,608 L 1032,608 L 1034,607 L 1036,607 L 1038,607 L 1040,606 L 1042,606 L 1044,606 L 1046,605 L 1048,605 L 1050,604 L 1052,604 L 1054,603 L 1056,603 L 1058,602 L 1060,602 L 1062,601 L 1064,601 L 1066,600 L 1068,599 L 1070,599 L 1072,598 L 1074,598 L 1076,597 L 1078,596 L 1080,596 L 1082,595 L 1084,594 L 1086,594 L 1088,593 L 1090,593 L 1092,592 L 1094,591 L 1096,590 L 1098,590 L 1100,589 L 1102,588 L 1104,587 L 1106,587 L 1108,586 L 1110,585 L 1112,584 L 1114,583 L 1116,583 L 1118,582 L 1120,581 L 1122,580 L 1124,579 L 1126,578 L 1128,577 L 1130,576 L 1132,575 L 1134,574 L 1136,573 L 1138,572 L 1140,571 L 1142,570 L 1144,569 L 1146,568 L 1148,566 L 1150,565 L 1152,564 L 1154,563 L 1156,561 L 1158,560 L 1160,559 L 1162,557 L 1164,556 L 1166,554 L 1168,553 L 1170,551 L 1172,550 L 1174,548 L 1176,547 L 1178,545 L 1180,543 L 1182,542 L 1184,540 L 1186,538 L 1188,536 L 1190,534 L 1191,532 L 1193,530 L 1194,528 L 1196,526 L 1197,524 L 1199,522 L 1200,520 L 1201,518 L 1202,516 L 1204,514 L 1205,512 L 1205,510 L 1206,508 L 1207,506 L 1208,504 L 1209,502 L 1209,500 L 1210,498 L 1211,496 L 1211,494 L 1211,492 L 1212,490 L 1212,488 L 1212,486 L 1213,484 L 1213,482 L 1213,480 L 1213,478 L 1212,476 L 1212,474 L 1212,472 L 1211,470 L 1211,468 L 1210,466 L 1209,464 L 1209,462 L 1208,460 L 1206,458 L 1205,456 L 1203,454 L 1201,452 L 1199,451 L 1197,450 L 1195,448 L 1193,447 L 1191,446 L 1189,446 L 1187,445 L 1185,444 L 1183,444 L 1181,443 L 1179,443 L 1177,443 L 1175,443 L 1173,443 L 1171,443 L 1169,443 L 1167,443 L 1165,443 L 1163,443 L 1161,443 L 1159,444 L 1157,444 L 1155,444 L 1153,445 L 1151,445 L 1149,446 L 1147,447 L 1145,447 L 1143,448 L 1141,449 L 1139,450 L 1137,451 L 1135,452 L 1133,453 L 1131,454 L 1129,455 L 1127,456 L 1125,458 L 1123,459 L 1121,460 L 1119,462 L 1117,463 L 1115,465 L 1113,466 L 1111,468 L 1109,470 L 1107,471 L 1105,473 L 1103,474 L 1101,476 L 1099,477 L 1097,479 L 1095,481 L 1093,482 L 1091,484 L 1089,485 L 1087,487 L 1085,488 L 1083,490 L 1081,492 L 1079,493 L 1077,495 L 1075,496 L 1073,498 L 1071,499 L 1069,500 L 1067,502 L 1065,503 L 1063,504 L 1061,505 L 1059,506 L 1057,507 L 1055,508 L 1053,509 L 1051,509 L 1049,510 L 1047,510 L 1045,510 L 1043,509 L 1041,507 L 1041,505 L 1040,503 L 1040,501 L 1040,499 L 1041,497 L 1041,495 L 1041,493 L 1042,491 L 1042,489 L 1043,487 L 1044,485 L 1044,483 L 1045,481 L 1045,479 L 1046,477 L 1047,475 L 1048,473 L 1048,471 L 1049,469 L 1050,467 L 1051,465 L 1052,463 L 1053,461 L 1054,459 L 1055,457 L 1056,455 L 1057,453 L 1057,451 L 1058,449 L 1059,447 L 1060,445 L 1061,443 L 1062,441 L 1063,439 L 1064,437 L 1066,435 L 1067,433 L 1068,431 L 1069,429 L 1070,427 L 1071,425 L 1072,423 L 1073,421 L 1074,419 L 1075,417 L 1076,415 L 1077,413 L 1078,411 L 1079,409 L 1080,407 L 1081,405 L 1081,403 L 1082,401 L 1082,399 L 1081,397 L 1080,395 L 1078,393 L 1076,392 L 1074,390 L 1072,389 L 1070,389 L 1068,388 L 1066,387 L 1064,387 L 1062,387 L 1060,386 L 1058,386 L 1056,386 L 1054,386 L 1052,386 L 1050,386 L 1048,387 L 1046,387 L 1044,388 L 1042,389 L 1040,389 L 1038,389 L 1036,387 L 1034,386 L 1032,384 L 1030,383 L 1028,382 L 1026,381 L 1024,380 L 1022,380 L 1020,379 L 1018,379 L 1016,378 L 1014,378 L 1012,377 L 1010,377 L 1008,377 L 1006,377 L 1004,377 L 1002,377 L 1000,377 L 998,377 L 996,378 L 994,378 L 992,378 L 990,378 L 988,379 L 986,379 L 984,380 L 982,381 L 980,381 L 978,382 L 976,383 L 974,384 L 972,385 L 970,386 L 968,387 L 966,388 L 964,389 L 962,390 L 960,391 L 958,392 L 956,394 L 954,395 L 952,397 L 950,398 L 948,400 L 946,402 L 944,404 L 942,405 L 940,407 L 938,409 L 936,411 L 934,413 L 933,415 L 931,417 L 929,419 L 928,421 L 926,423 L 924,425 L 923,427 L 922,429 L 920,431 L 919,433 L 918,435 L 916,437 L 915,439 L 914,441 L 913,443 L 912,445 L 910,447 L 909,449 L 908,451 L 907,453 L 907,455 L 906,457 L 905,459 L 904,461 L 903,463 L 902,465 L 902,467 L 901,469 L 900,471 L 899,473 L 899,475 L 897,477 L 896,479 L 894,481 L 892,483 L 890,485 L 888,487 L 887,489 L 885,491 L 883,493 L 881,495 L 879,496 L 877,498 L 875,500 L 873,502 L 871,503 L 869,505 L 867,506 L 865,507 L 863,508 L 861,509 L 859,510 L 857,510 L 855,510 L 853,510 L 851,509 L 850,507 L 849,505 L 849,503 L 849,501 L 849,499 L 850,497 L 850,495 L 851,493 L 851,491 L 852,489 L 852,487 L 853,485 L 853,483 L 854,481 L 855,479 L 855,477 L 856,475 L 857,473 L 857,471 L 858,469 L 859,467 L 860,465 L 860,463 L 861,461 L 862,459 L 863,457 L 864,455 L 864,453 L 865,451 L 866,449 L 867,447 L 868,445 L 869,443 L 869,441 L 870,439 L 871,437 L 872,435 L 873,433 L 874,431 L 874,429 L 875,427 L 876,425 L 877,423 L 878,421 L 879,419 L 880,417 L 881,415 L 881,413 L 882,411 L 883,409 L 884,407 L 885,405 L 886,403 L 887,401 L 888,399 L 889,397 L 889,395 L 890,393 L 891,391 L 892,389 L 893,387 L 894,385 L 895,383 L 896,381 L 897,379 L 898,377 L 898,375 L 899,373 L 900,371 L 901,369 L 902,367 L 904,366 L 906,366 L 908,366 L 910,366 L 912,366 L 914,366 L 916,366 L 918,366 L 920,366 L 922,366 L 924,366 L 926,366 L 928,366 L 930,366 L 932,366 L 934,366 L 936,366 L 938,366 L 940,366 L 942,365 L 944,365 L 946,365 L 948,365 L 950,364 L 952,364 L 954,364 L 956,363 L 958,363 L 960,362 L 962,362 L 964,361 L 966,361 L 968,360 L 970,359 L 972,359 L 974,358 L 976,357 L 978,356 L 980,355 L 982,354 L 984,353 L 986,351 L 988,350 L 990,348 L 992,346 L 994,344 L 996,342 L 997,340 L 998,338 L 999,336 L 999,334 L 1000,332 L 1000,330 L 999,328 L 998,327 L 996,327 L 994,328 L 992,329 L 990,331 L 988,332 L 986,333 L 984,333 L 982,334 L 980,335 L 978,336 L 976,336 L 974,337 L 972,338 L 970,338 L 968,339 L 966,339 L 964,339 L 962,340 L 960,340 L 958,340 L 956,340 L 954,341 L 952,341 L 950,341 L 948,341 L 946,341 L 944,341 L 942,341 L 940,341 L 938,341 L 936,342 L 934,342 L 932,342 L 930,342 L 928,342 L 926,342 L 924,342 L 922,342 L 920,342 L 918,342 L 916,341 L 916,339 L 916,337 L 917,335 L 918,333 L 919,331 L 919,329 L 920,327 L 921,325 L 922,323 L 923,321 L 924,319 L 925,317 L 926,315 L 927,313 L 928,311 L 929,309 L 930,307 L 930,305 L 931,303 L 932,301 L 933,299 L 934,297 L 935,295 L 936,293 L 937,291 L 938,289 L 938,287 L 939,285 L 940,283 L 940,281 L 941,279 L 940,277 L 940,275 L 939,273 L 937,272 L 935,271 L 933,271 L 931,270 L 929,270 L 927,270 L 925,270 L 923,270 L 921,270 L 919,270 L 917,270 L 915,270 L 913,270 Z"/>
<path d="M 602,264 L 600,265 L 598,265 L 596,265 L 594,266 L 592,266 L 590,267 L 588,268 L 586,268 L 584,269 L 582,270 L 580,271 L 578,273 L 576,274 L 574,276 L 572,278 L 571,280 L 570,282 L 568,284 L 567,286 L 566,288 L 565,290 L 564,292 L 563,294 L 562,296 L 561,298 L 559,300 L 558,302 L 557,304 L 556,306 L 555,308 L 554,310 L 553,312 L 552,314 L 551,316 L 550,318 L 549,320 L 548,322 L 547,324 L 546,326 L 545,328 L 544,330 L 543,332 L 542,334 L 541,336 L 540,338 L 539,340 L 537,341 L 535,341 L 533,341 L 531,340 L 529,340 L 527,340 L 525,340 L 523,340 L 521,340 L 519,340 L 517,340 L 515,340 L 513,340 L 511,340 L 509,340 L 507,340 L 505,340 L 503,340 L 501,340 L 499,340 L 497,340 L 495,340 L 493,340 L 491,340 L 489,340 L 487,341 L 485,341 L 483,341 L 481,341 L 479,341 L 477,342 L 475,342 L 473,342 L 471,342 L 469,343 L 467,343 L 465,343 L 463,343 L 461,344 L 459,344 L 457,345 L 455,345 L 453,345 L 451,346 L 449,346 L 447,347 L 445,347 L 443,348 L 441,348 L 439,349 L 437,349 L 435,350 L 433,351 L 431,351 L 429,352 L 427,353 L 425,354 L 423,354 L 421,355 L 419,356 L 417,357 L 415,358 L 413,359 L 411,360 L 409,361 L 407,362 L 405,363 L 403,365 L 401,366 L 399,368 L 397,369 L 395,371 L 393,373 L 391,374 L 389,376 L 388,378 L 386,380 L 384,382 L 383,384 L 382,386 L 381,388 L 379,390 L 379,392 L 378,394 L 377,396 L 376,398 L 376,400 L 375,402 L 375,404 L 375,406 L 375,408 L 375,410 L 375,412 L 375,414 L 375,416 L 376,418 L 376,420 L 377,422 L 377,424 L 378,426 L 379,428 L 380,430 L 382,432 L 383,434 L 385,436 L 387,437 L 389,439 L 391,440 L 393,442 L 395,443 L 397,443 L 399,444 L 401,445 L 403,445 L 405,446 L 407,446 L 409,447 L 411,447 L 413,447 L 415,447 L 417,447 L 419,447 L 421,447 L 423,447 L 425,447 L 427,446 L 429,446 L 431,446 L 433,445 L 435,445 L 437,444 L 439,443 L 441,442 L 443,440 L 443,438 L 441,437 L 439,436 L 437,436 L 435,436 L 433,436 L 431,436 L 429,436 L 427,436 L 425,435 L 423,435 L 421,434 L 419,434 L 417,433 L 415,432 L 413,430 L 411,428 L 410,426 L 409,424 L 409,422 L 409,420 L 409,418 L 409,416 L 410,414 L 411,412 L 412,410 L 414,408 L 415,406 L 417,404 L 419,402 L 421,400 L 423,399 L 425,397 L 427,396 L 429,395 L 431,393 L 433,392 L 435,391 L 437,390 L 439,389 L 441,388 L 443,387 L 445,387 L 447,386 L 449,385 L 451,384 L 453,384 L 455,383 L 457,382 L 459,382 L 461,381 L 463,381 L 465,380 L 467,380 L 469,379 L 471,379 L 473,378 L 475,378 L 477,377 L 479,377 L 481,377 L 483,376 L 485,376 L 487,376 L 489,376 L 491,375 L 493,375 L 495,375 L 497,375 L 499,374 L 501,374 L 503,374 L 505,374 L 507,374 L 509,374 L 511,373 L 513,373 L 515,373 L 517,373 L 519,373 L 520,375 L 520,377 L 520,379 L 519,381 L 518,383 L 517,385 L 516,387 L 515,389 L 514,391 L 513,393 L 512,395 L 511,397 L 510,399 L 509,401 L 508,403 L 507,405 L 506,407 L 505,409 L 504,411 L 503,413 L 502,415 L 502,417 L 501,419 L 500,421 L 499,423 L 498,425 L 497,427 L 496,429 L 495,431 L 494,433 L 493,435 L 493,437 L 492,439 L 491,441 L 490,443 L 489,445 L 488,447 L 488,449 L 487,451 L 486,453 L 485,455 L 484,457 L 484,459 L 483,461 L 482,463 L 481,465 L 481,467 L 480,469 L 479,471 L 478,473 L 478,475 L 477,477 L 476,479 L 476,481 L 475,483 L 474,485 L 474,487 L 473,489 L 472,491 L 472,493 L 471,495 L 471,497 L 470,499 L 470,501 L 469,503 L 469,505 L 468,507 L 468,509 L 468,511 L 467,513 L 467,515 L 467,517 L 466,519 L 466,521 L 466,523 L 466,525 L 466,527 L 466,529 L 466,531 L 466,533 L 466,535 L 466,537 L 466,539 L 467,541 L 467,543 L 468,545 L 468,547 L 469,549 L 470,551 L 471,553 L 473,555 L 474,557 L 476,559 L 478,561 L 480,562 L 482,563 L 484,564 L 486,565 L 488,566 L 490,567 L 492,567 L 494,567 L 496,567 L 498,568 L 500,568 L 502,568 L 504,568 L 506,567 L 508,567 L 510,567 L 512,567 L 514,566 L 516,566 L 518,565 L 520,565 L 522,564 L 524,563 L 526,563 L 528,562 L 530,561 L 532,560 L 534,559 L 536,558 L 538,556 L 540,555 L 542,554 L 544,552 L 546,551 L 548,549 L 550,547 L 552,546 L 554,544 L 556,542 L 558,540 L 560,538 L 562,536 L 564,535 L 566,535 L 568,536 L 570,538 L 572,539 L 574,541 L 576,542 L 578,542 L 580,543 L 582,543 L 584,544 L 586,544 L 588,544 L 590,544 L 592,544 L 594,544 L 596,544 L 598,544 L 600,543 L 602,542 L 604,541 L 606,540 L 608,539 L 610,538 L 612,536 L 613,534 L 615,532 L 616,530 L 616,528 L 617,526 L 618,524 L 619,522 L 620,520 L 620,518 L 621,516 L 622,514 L 623,512 L 624,510 L 625,508 L 625,506 L 626,504 L 627,502 L 628,500 L 629,498 L 630,496 L 631,494 L 632,492 L 633,490 L 634,488 L 636,486 L 637,484 L 638,482 L 639,480 L 640,478 L 642,476 L 643,474 L 644,472 L 646,470 L 647,468 L 648,466 L 649,464 L 651,462 L 652,460 L 654,458 L 655,456 L 657,454 L 658,452 L 660,450 L 661,448 L 663,446 L 664,444 L 666,442 L 668,440 L 670,438 L 672,436 L 674,434 L 676,432 L 678,430 L 680,429 L 682,429 L 684,430 L 684,432 L 684,434 L 684,436 L 684,438 L 684,440 L 683,442 L 683,444 L 683,446 L 683,448 L 682,450 L 682,452 L 682,454 L 683,456 L 685,457 L 687,457 L 689,456 L 691,456 L 693,455 L 695,455 L 697,454 L 699,453 L 701,452 L 703,451 L 705,450 L 707,448 L 709,447 L 711,445 L 713,444 L 715,442 L 717,440 L 719,438 L 720,436 L 722,434 L 723,432 L 725,430 L 726,428 L 727,426 L 728,424 L 729,422 L 730,420 L 730,418 L 731,416 L 731,414 L 732,412 L 732,410 L 732,408 L 731,406 L 731,404 L 730,402 L 729,400 L 728,398 L 726,396 L 724,395 L 722,394 L 720,393 L 718,392 L 716,392 L 714,392 L 712,392 L 710,392 L 708,392 L 706,392 L 704,393 L 702,393 L 700,394 L 698,394 L 696,395 L 694,396 L 692,397 L 690,398 L 688,399 L 686,400 L 684,402 L 682,403 L 680,405 L 678,406 L 676,408 L 674,409 L 672,411 L 670,413 L 668,415 L 666,417 L 664,419 L 663,421 L 661,423 L 659,423 L 657,423 L 656,421 L 656,419 L 657,417 L 657,415 L 657,413 L 657,411 L 657,409 L 656,407 L 655,405 L 654,403 L 652,402 L 650,400 L 648,399 L 646,399 L 644,398 L 642,398 L 640,397 L 638,397 L 636,397 L 634,397 L 632,397 L 630,397 L 628,398 L 626,398 L 624,398 L 622,399 L 620,400 L 618,400 L 616,401 L 614,402 L 612,403 L 610,404 L 608,406 L 608,408 L 610,410 L 610,412 L 610,414 L 610,416 L 609,418 L 609,420 L 608,422 L 607,424 L 607,426 L 606,428 L 605,430 L 604,432 L 604,434 L 603,436 L 602,438 L 601,440 L 600,442 L 599,444 L 598,446 L 598,448 L 597,450 L 596,452 L 595,454 L 594,456 L 593,458 L 592,460 L 592,462 L 591,464 L 590,466 L 589,468 L 588,470 L 587,472 L 586,474 L 586,476 L 585,478 L 584,480 L 583,482 L 582,484 L 582,486 L 581,488 L 580,490 L 578,492 L 577,494 L 575,496 L 573,498 L 572,500 L 570,502 L 568,504 L 567,506 L 565,508 L 563,510 L 561,512 L 559,514 L 557,516 L 555,518 L 553,520 L 551,522 L 549,524 L 547,525 L 545,527 L 543,528 L 541,530 L 539,531 L 537,532 L 535,533 L 533,534 L 531,534 L 529,535 L 527,535 L 525,535 L 523,534 L 521,532 L 520,530 L 519,528 L 519,526 L 519,524 L 519,522 L 519,520 L 519,518 L 519,516 L 520,514 L 520,512 L 521,510 L 521,508 L 521,506 L 522,504 L 522,502 L 523,500 L 524,498 L 524,496 L 525,494 L 526,492 L 526,490 L 527,488 L 528,486 L 528,484 L 529,482 L 530,480 L 530,478 L 531,476 L 532,474 L 533,472 L 534,470 L 534,468 L 535,466 L 536,464 L 537,462 L 537,460 L 538,458 L 539,456 L 540,454 L 541,452 L 542,450 L 542,448 L 543,446 L 544,444 L 545,442 L 546,440 L 547,438 L 548,436 L 549,434 L 550,432 L 550,430 L 551,428 L 552,426 L 553,424 L 554,422 L 555,420 L 556,418 L 557,416 L 558,414 L 559,412 L 560,410 L 561,408 L 561,406 L 562,404 L 563,402 L 564,400 L 565,398 L 566,396 L 567,394 L 568,392 L 569,390 L 570,388 L 571,386 L 572,384 L 573,382 L 574,380 L 575,378 L 576,376 L 577,374 L 579,374 L 581,374 L 583,374 L 585,374 L 587,374 L 589,374 L 591,374 L 593,374 L 595,375 L 597,375 L 599,375 L 601,375 L 603,375 L 605,375 L 607,375 L 609,375 L 611,375 L 613,376 L 615,375 L 617,375 L 619,375 L 621,375 L 623,375 L 625,376 L 627,376 L 629,376 L 631,376 L 633,376 L 635,376 L 637,376 L 639,376 L 641,376 L 643,376 L 645,376 L 647,376 L 649,376 L 651,376 L 653,375 L 655,375 L 657,375 L 659,375 L 661,375 L 663,375 L 665,375 L 667,375 L 669,375 L 671,374 L 673,374 L 675,374 L 677,374 L 679,373 L 681,373 L 683,373 L 685,372 L 687,372 L 689,372 L 691,371 L 693,371 L 695,371 L 697,370 L 699,369 L 701,369 L 703,368 L 705,368 L 707,367 L 709,367 L 711,366 L 713,365 L 715,364 L 717,364 L 719,363 L 721,362 L 723,361 L 725,360 L 727,358 L 729,357 L 731,356 L 733,354 L 735,353 L 737,351 L 739,349 L 741,347 L 742,345 L 743,343 L 743,341 L 743,339 L 741,338 L 739,338 L 737,338 L 735,339 L 733,340 L 731,340 L 729,341 L 727,341 L 725,342 L 723,343 L 721,343 L 719,344 L 717,344 L 715,344 L 713,345 L 711,345 L 709,346 L 707,346 L 705,346 L 703,346 L 701,347 L 699,347 L 697,347 L 695,347 L 693,348 L 691,348 L 689,348 L 687,348 L 685,348 L 683,348 L 681,348 L 679,348 L 677,348 L 675,348 L 673,349 L 671,349 L 669,349 L 667,349 L 665,349 L 663,349 L 661,349 L 659,349 L 657,349 L 655,349 L 653,349 L 651,349 L 649,349 L 647,349 L 645,348 L 643,348 L 641,348 L 639,348 L 637,348 L 635,348 L 633,348 L 631,348 L 629,347 L 627,347 L 625,347 L 623,347 L 621,347 L 619,347 L 617,347 L 615,346 L 613,346 L 611,346 L 609,346 L 607,346 L 605,346 L 603,345 L 601,345 L 599,345 L 597,345 L 595,345 L 593,344 L 593,342 L 593,340 L 594,338 L 595,336 L 596,334 L 597,332 L 598,330 L 599,328 L 600,326 L 601,324 L 602,322 L 603,320 L 604,318 L 605,316 L 606,314 L 607,312 L 608,310 L 609,308 L 610,306 L 611,304 L 612,302 L 613,300 L 614,298 L 615,296 L 615,294 L 616,292 L 617,290 L 618,288 L 619,286 L 620,284 L 621,282 L 622,280 L 623,278 L 624,276 L 624,274 L 624,272 L 624,270 L 623,268 L 621,266 L 619,265 L 617,265 L 615,264 L 613,264 L 611,264 L 609,264 L 607,264 L 605,264 L 603,264 Z"/>
<path d="M 1015,400 L 1017,399 L 1019,399 L 1021,399 L 1023,400 L 1025,401 L 1027,403 L 1029,405 L 1029,407 L 1029,409 L 1029,411 L 1029,413 L 1027,415 L 1025,417 L 1023,419 L 1022,421 L 1021,423 L 1020,425 L 1019,427 L 1018,429 L 1016,431 L 1015,433 L 1015,435 L 1014,437 L 1012,439 L 1011,441 L 1010,443 L 1009,445 L 1008,447 L 1007,449 L 1005,451 L 1004,453 L 1002,455 L 1001,457 L 999,459 L 998,461 L 996,463 L 995,465 L 994,467 L 992,469 L 990,471 L 988,473 L 987,475 L 985,477 L 983,479 L 981,481 L 980,483 L 978,485 L 976,486 L 974,488 L 972,490 L 970,492 L 968,493 L 966,495 L 964,497 L 962,498 L 960,499 L 958,500 L 956,501 L 954,502 L 952,502 L 950,502 L 948,502 L 946,500 L 945,498 L 944,496 L 944,494 L 944,492 L 945,490 L 945,488 L 945,486 L 946,484 L 946,482 L 947,480 L 947,478 L 948,476 L 949,474 L 949,472 L 950,470 L 951,468 L 952,466 L 953,464 L 954,462 L 955,460 L 956,458 L 957,456 L 958,454 L 959,452 L 960,450 L 961,448 L 963,446 L 964,444 L 965,442 L 966,440 L 968,438 L 969,436 L 971,434 L 972,432 L 973,430 L 975,428 L 977,426 L 979,424 L 980,422 L 982,420 L 984,418 L 986,416 L 988,414 L 990,413 L 992,411 L 994,410 L 996,408 L 998,407 L 1000,406 L 1002,404 L 1004,403 L 1006,402 L 1008,401 L 1010,401 L 1012,400 L 1014,400 Z"/>
<path d="M 794,323 L 792,324 L 790,324 L 788,325 L 786,326 L 784,326 L 782,327 L 780,328 L 778,329 L 776,330 L 774,331 L 772,333 L 770,334 L 768,336 L 766,338 L 765,340 L 764,342 L 763,344 L 762,346 L 761,348 L 760,350 L 760,352 L 760,354 L 759,356 L 759,358 L 760,360 L 760,362 L 761,364 L 762,366 L 764,368 L 766,369 L 768,370 L 770,371 L 772,372 L 774,372 L 776,373 L 778,373 L 780,373 L 782,373 L 784,373 L 786,373 L 788,372 L 790,372 L 792,371 L 794,371 L 796,370 L 798,369 L 800,368 L 802,367 L 804,366 L 806,364 L 808,363 L 810,361 L 812,359 L 814,357 L 815,355 L 817,353 L 818,351 L 819,349 L 820,347 L 820,345 L 821,343 L 821,341 L 822,339 L 821,337 L 821,335 L 821,333 L 820,331 L 819,329 L 817,327 L 815,326 L 813,325 L 811,324 L 809,323 L 807,323 L 805,323 L 803,323 L 801,323 L 799,323 L 797,323 L 795,323 Z"/>
<path d="M 508,214 L 506,216 L 506,218 L 506,220 L 506,222 L 506,224 L 506,226 L 505,228 L 505,230 L 504,232 L 504,234 L 503,236 L 502,238 L 501,240 L 500,242 L 499,244 L 497,246 L 495,248 L 493,250 L 491,251 L 489,253 L 487,254 L 485,255 L 483,256 L 481,257 L 479,257 L 477,258 L 475,258 L 473,259 L 471,259 L 469,259 L 467,259 L 465,260 L 464,262 L 465,264 L 467,265 L 469,265 L 471,265 L 473,266 L 475,266 L 477,266 L 479,267 L 481,267 L 483,268 L 485,268 L 487,269 L 489,270 L 491,272 L 493,273 L 495,275 L 497,277 L 498,279 L 500,281 L 500,283 L 501,285 L 502,287 L 502,289 L 503,291 L 503,293 L 503,295 L 504,297 L 504,299 L 506,300 L 508,301 L 510,299 L 511,297 L 511,295 L 511,293 L 511,291 L 512,289 L 512,287 L 512,285 L 513,283 L 514,281 L 515,279 L 516,277 L 517,275 L 519,273 L 520,271 L 522,269 L 524,268 L 526,266 L 528,265 L 530,264 L 532,263 L 534,263 L 536,262 L 538,262 L 540,261 L 542,261 L 544,261 L 546,261 L 548,259 L 548,257 L 546,255 L 544,255 L 542,255 L 540,255 L 538,254 L 536,254 L 534,253 L 532,253 L 530,252 L 528,251 L 526,250 L 524,248 L 522,247 L 520,245 L 518,243 L 517,241 L 516,239 L 515,237 L 515,235 L 514,233 L 513,231 L 513,229 L 513,227 L 512,225 L 512,223 L 512,221 L 512,219 L 512,217 L 512,215 L 510,214 Z"/>
<path d="M 373,488 L 371,489 L 369,489 L 367,490 L 365,490 L 363,491 L 361,492 L 359,494 L 357,495 L 355,497 L 353,499 L 351,500 L 349,502 L 348,504 L 346,506 L 344,508 L 342,508 L 340,508 L 338,506 L 337,504 L 336,502 L 334,500 L 332,498 L 330,497 L 328,497 L 326,497 L 324,496 L 322,496 L 320,497 L 318,497 L 316,497 L 314,498 L 312,499 L 310,499 L 308,500 L 306,501 L 304,502 L 302,504 L 300,505 L 298,507 L 296,508 L 294,510 L 292,512 L 291,514 L 290,516 L 290,518 L 291,520 L 292,521 L 294,522 L 296,521 L 298,519 L 299,517 L 301,515 L 303,513 L 305,512 L 307,510 L 309,509 L 311,508 L 313,507 L 315,506 L 317,505 L 319,504 L 321,504 L 323,504 L 325,504 L 327,504 L 329,505 L 331,507 L 332,509 L 332,511 L 333,513 L 335,515 L 337,516 L 339,517 L 341,517 L 343,517 L 345,516 L 347,515 L 349,513 L 351,512 L 353,510 L 354,508 L 356,506 L 358,504 L 360,503 L 362,501 L 364,500 L 366,498 L 368,497 L 370,496 L 372,496 L 374,496 L 376,498 L 377,500 L 378,502 L 378,504 L 379,506 L 380,508 L 382,510 L 384,511 L 386,511 L 388,511 L 390,511 L 392,510 L 394,510 L 396,508 L 398,507 L 400,506 L 402,504 L 404,503 L 406,501 L 408,500 L 410,499 L 412,498 L 414,498 L 416,498 L 418,499 L 419,501 L 421,502 L 423,500 L 423,498 L 422,496 L 421,494 L 419,492 L 417,491 L 415,491 L 413,491 L 411,491 L 409,492 L 407,492 L 405,494 L 403,495 L 401,496 L 399,498 L 397,499 L 395,501 L 393,502 L 391,503 L 389,503 L 387,503 L 385,502 L 384,500 L 384,498 L 383,496 L 383,494 L 382,492 L 380,490 L 378,489 L 376,489 L 374,488 Z"/>
<path d="M 784,665 L 782,667 L 780,669 L 778,670 L 776,672 L 774,673 L 772,674 L 770,675 L 768,675 L 766,676 L 764,676 L 762,677 L 760,677 L 758,677 L 756,677 L 754,676 L 752,676 L 750,675 L 748,675 L 746,674 L 744,673 L 742,672 L 740,671 L 738,671 L 737,672 L 736,674 L 738,676 L 740,677 L 742,678 L 744,679 L 746,680 L 748,681 L 750,681 L 752,682 L 754,682 L 756,682 L 758,683 L 760,683 L 762,683 L 764,682 L 766,682 L 768,682 L 770,681 L 772,680 L 774,680 L 776,679 L 778,678 L 780,676 L 782,676 L 784,676 L 786,677 L 788,679 L 790,680 L 792,681 L 794,682 L 796,682 L 798,683 L 800,683 L 802,684 L 804,684 L 806,683 L 808,683 L 810,682 L 812,682 L 814,681 L 816,680 L 818,679 L 820,678 L 822,676 L 824,676 L 826,676 L 828,676 L 830,677 L 832,678 L 834,678 L 836,679 L 838,679 L 840,679 L 842,679 L 844,678 L 846,678 L 848,677 L 850,676 L 852,674 L 854,672 L 856,670 L 857,668 L 857,666 L 855,665 L 853,665 L 851,667 L 849,669 L 847,671 L 845,672 L 843,672 L 841,673 L 839,673 L 837,673 L 835,673 L 833,672 L 831,671 L 829,670 L 828,668 L 826,667 L 824,666 L 822,667 L 820,668 L 819,670 L 817,672 L 815,673 L 813,675 L 811,676 L 809,676 L 807,677 L 805,677 L 803,677 L 801,677 L 799,677 L 797,676 L 795,676 L 793,675 L 791,673 L 789,671 L 789,669 L 788,667 L 787,666 L 785,665 Z"/>
<path d="M 506,244 L 508,243 L 510,243 L 512,244 L 513,246 L 515,248 L 517,250 L 518,251 L 520,253 L 522,254 L 524,256 L 524,258 L 524,260 L 522,261 L 520,262 L 518,264 L 516,266 L 514,268 L 512,270 L 511,272 L 510,274 L 508,275 L 506,275 L 504,275 L 502,273 L 501,271 L 499,269 L 497,268 L 495,266 L 493,265 L 491,264 L 491,262 L 491,260 L 492,258 L 494,257 L 496,256 L 498,254 L 500,252 L 502,250 L 504,248 L 505,246 Z"/>
<path d="M 395,540 L 393,541 L 391,541 L 389,541 L 387,541 L 385,542 L 383,542 L 381,543 L 379,543 L 377,544 L 375,545 L 373,545 L 371,546 L 369,547 L 367,548 L 365,549 L 363,551 L 362,553 L 364,555 L 366,555 L 368,555 L 370,554 L 372,553 L 374,552 L 376,551 L 378,551 L 380,550 L 382,549 L 384,549 L 386,548 L 388,548 L 390,547 L 392,547 L 394,547 L 396,547 L 398,547 L 400,546 L 402,546 L 404,546 L 406,546 L 408,546 L 410,547 L 412,547 L 414,546 L 415,544 L 415,542 L 413,541 L 411,541 L 409,541 L 407,540 L 405,540 L 403,540 L 401,540 L 399,540 L 397,540 Z"/>
<path d="M 408,566 L 406,567 L 404,567 L 402,568 L 400,568 L 398,569 L 396,569 L 394,570 L 392,571 L 390,572 L 388,572 L 386,573 L 384,575 L 382,576 L 380,577 L 379,579 L 380,581 L 382,582 L 384,582 L 386,581 L 388,580 L 390,579 L 392,578 L 394,577 L 396,576 L 398,575 L 400,575 L 402,574 L 404,574 L 406,573 L 408,573 L 410,572 L 412,572 L 414,572 L 416,572 L 418,572 L 420,572 L 422,573 L 424,573 L 426,571 L 426,569 L 425,567 L 423,566 L 421,566 L 419,566 L 417,566 L 415,566 L 413,566 L 411,566 L 409,566 Z"/>
<path d="M 1079,296 L 1077,297 L 1075,297 L 1073,297 L 1071,298 L 1069,298 L 1067,299 L 1065,299 L 1063,300 L 1061,300 L 1059,301 L 1057,302 L 1055,303 L 1053,303 L 1051,304 L 1049,305 L 1047,306 L 1045,307 L 1043,309 L 1042,310 L 1041,312 L 1043,313 L 1045,313 L 1047,312 L 1049,311 L 1051,310 L 1053,309 L 1055,309 L 1057,308 L 1059,307 L 1061,307 L 1063,306 L 1065,305 L 1067,305 L 1069,304 L 1071,304 L 1073,303 L 1075,303 L 1077,303 L 1079,302 L 1081,302 L 1083,302 L 1085,302 L 1087,302 L 1089,301 L 1090,299 L 1090,297 L 1088,296 L 1086,296 L 1084,296 L 1082,296 L 1080,296 Z"/>
<path d="M 1061,271 L 1059,272 L 1057,272 L 1055,273 L 1053,274 L 1051,275 L 1049,276 L 1047,277 L 1045,278 L 1043,279 L 1041,280 L 1039,281 L 1037,282 L 1035,284 L 1033,285 L 1031,287 L 1029,289 L 1027,291 L 1025,292 L 1024,294 L 1024,296 L 1026,297 L 1028,297 L 1030,295 L 1032,293 L 1034,292 L 1036,290 L 1038,289 L 1040,287 L 1042,286 L 1044,285 L 1046,284 L 1048,283 L 1050,282 L 1052,281 L 1054,280 L 1056,279 L 1058,278 L 1060,278 L 1062,277 L 1064,276 L 1065,274 L 1064,272 L 1062,272 Z"/>
<path d="M 1252,486 L 1250,487 L 1248,487 L 1246,487 L 1244,488 L 1242,489 L 1240,491 L 1241,493 L 1243,494 L 1245,493 L 1247,493 L 1249,492 L 1251,492 L 1253,492 L 1255,492 L 1257,492 L 1259,492 L 1261,492 L 1263,492 L 1265,493 L 1267,493 L 1269,493 L 1271,494 L 1273,494 L 1275,495 L 1277,495 L 1279,496 L 1281,497 L 1283,496 L 1285,495 L 1284,493 L 1283,491 L 1281,491 L 1279,490 L 1277,489 L 1275,488 L 1273,488 L 1271,488 L 1269,487 L 1267,487 L 1265,486 L 1263,486 L 1261,486 L 1259,486 L 1257,486 L 1255,486 L 1253,486 Z"/>
<path d="M 1262,461 L 1260,462 L 1258,462 L 1256,462 L 1254,463 L 1252,463 L 1250,464 L 1248,465 L 1246,465 L 1244,466 L 1242,468 L 1241,470 L 1243,472 L 1245,472 L 1247,471 L 1249,470 L 1251,470 L 1253,469 L 1255,469 L 1257,468 L 1259,468 L 1261,468 L 1263,467 L 1265,467 L 1267,467 L 1269,467 L 1271,468 L 1273,468 L 1275,468 L 1277,469 L 1279,469 L 1281,470 L 1283,470 L 1284,468 L 1284,466 L 1283,464 L 1281,464 L 1279,463 L 1277,463 L 1275,462 L 1273,462 L 1271,462 L 1269,461 L 1267,461 L 1265,461 L 1263,461 Z"/>
<path d="M 1237,512 L 1235,514 L 1236,516 L 1238,516 L 1240,516 L 1242,517 L 1244,517 L 1246,517 L 1248,518 L 1250,518 L 1252,519 L 1254,519 L 1256,520 L 1258,520 L 1260,521 L 1262,522 L 1264,523 L 1266,524 L 1268,525 L 1270,526 L 1272,527 L 1274,528 L 1276,528 L 1278,528 L 1279,526 L 1279,524 L 1277,522 L 1275,521 L 1273,520 L 1271,519 L 1269,518 L 1267,517 L 1265,517 L 1263,516 L 1261,515 L 1259,514 L 1257,514 L 1255,513 L 1253,513 L 1251,513 L 1249,512 L 1247,512 L 1245,512 L 1243,512 L 1241,512 L 1239,512 Z"/>
<path d="M 418,277 L 416,279 L 416,281 L 417,283 L 418,285 L 419,287 L 420,289 L 421,291 L 422,293 L 423,295 L 425,297 L 426,299 L 428,301 L 430,302 L 432,304 L 434,305 L 436,306 L 438,307 L 440,306 L 440,304 L 438,302 L 436,300 L 434,298 L 432,297 L 431,295 L 429,293 L 428,291 L 427,289 L 426,287 L 425,285 L 424,283 L 423,281 L 423,279 L 421,277 L 419,277 Z"/>
<path d="M 1074,326 L 1072,327 L 1070,327 L 1068,328 L 1066,328 L 1064,329 L 1062,330 L 1060,331 L 1060,333 L 1062,334 L 1064,334 L 1066,334 L 1068,334 L 1070,333 L 1072,333 L 1074,333 L 1076,333 L 1078,333 L 1080,332 L 1082,332 L 1084,332 L 1086,332 L 1088,332 L 1090,332 L 1092,333 L 1094,332 L 1096,332 L 1097,330 L 1096,328 L 1094,328 L 1092,327 L 1090,327 L 1088,326 L 1086,326 L 1084,326 L 1082,326 L 1080,326 L 1078,326 L 1076,326 Z"/>
<path d="M 395,299 L 393,300 L 392,302 L 393,304 L 394,306 L 396,308 L 398,309 L 400,310 L 402,311 L 404,313 L 406,314 L 408,315 L 410,315 L 412,316 L 414,317 L 416,318 L 418,318 L 420,317 L 420,315 L 419,314 L 417,313 L 415,312 L 413,311 L 411,310 L 409,309 L 407,308 L 405,306 L 403,305 L 401,304 L 399,302 L 397,300 Z"/>
</g></svg>