<svg xmlns="http://www.w3.org/2000/svg" width="1536" height="1024" viewBox="0 0 1536 1024">
  <g fill="rgb(74,28,117)" stroke="none" fill-rule="evenodd">
    <path d="M 1212,468 L 1206,457 L 1192,447 L 1182,444 L 1161,444 L 1141,450 L 1122,461 L 1068,503 L 1057,509 L 1045,511 L 1042,508 L 1041,500 L 1047,477 L 1058,452 L 1082,407 L 1083,400 L 1078,393 L 1067,388 L 1051,387 L 1046,388 L 1041,392 L 1033,385 L 1022,380 L 1013,378 L 998,378 L 978,383 L 959,393 L 944,405 L 929,421 L 917,438 L 908,454 L 898,479 L 881,497 L 870,506 L 857,512 L 853,511 L 850,506 L 850,500 L 859,469 L 903,368 L 942,367 L 968,362 L 988,352 L 997,343 L 1001,334 L 1000,328 L 996,328 L 985,335 L 964,341 L 942,343 L 916,343 L 915,342 L 939,290 L 942,279 L 940,274 L 933,271 L 908,272 L 896,277 L 890,284 L 863,345 L 842,350 L 834,354 L 827,361 L 824,367 L 825,372 L 851,367 L 852,370 L 831,417 L 817,454 L 794,483 L 777,500 L 765,508 L 759,508 L 758,499 L 765,479 L 797,413 L 798,401 L 792,395 L 781,392 L 762,394 L 756,396 L 751,400 L 751,408 L 725,464 L 711,500 L 709,508 L 709,521 L 715,533 L 727,539 L 744,539 L 757,535 L 777,522 L 792,508 L 804,494 L 805,515 L 807,522 L 814,531 L 824,536 L 845,537 L 856,534 L 875,523 L 895,504 L 899,520 L 903,526 L 909,531 L 919,535 L 937,535 L 950,531 L 968,520 L 988,501 L 1000,486 L 1001,489 L 999,506 L 1000,513 L 1004,522 L 1011,529 L 1019,533 L 1039,534 L 1054,530 L 1071,521 L 1121,480 L 1146,466 L 1156,463 L 1173,464 L 1178,468 L 1183,478 L 1183,488 L 1179,502 L 1171,516 L 1160,528 L 1150,536 L 1130,548 L 1097,561 L 1051,572 L 1003,578 L 965,580 L 923,579 L 878,576 L 813,568 L 751,563 L 671,563 L 637,566 L 600,572 L 572,579 L 548,587 L 524,598 L 508,608 L 493,622 L 486,633 L 483,642 L 484,657 L 493,671 L 508,680 L 521,684 L 547,688 L 577,688 L 606,684 L 640,676 L 679,663 L 739,640 L 771,630 L 801,624 L 825,624 L 825,621 L 816,619 L 785,619 L 771,621 L 735,630 L 658,656 L 622,666 L 584,672 L 560,671 L 538,666 L 528,658 L 527,647 L 530,641 L 538,633 L 563,619 L 589,610 L 624,602 L 655,598 L 723,597 L 803,604 L 865,613 L 906,616 L 977,616 L 1017,612 L 1054,605 L 1091,594 L 1126,580 L 1152,566 L 1182,544 L 1198,526 L 1209,506 L 1214,485 Z M 1025,401 L 1030,406 L 1031,412 L 1024,420 L 1017,432 L 1012,444 L 995,468 L 982,483 L 965,498 L 953,504 L 949,503 L 946,500 L 945,492 L 946,491 L 946,485 L 950,473 L 960,452 L 974,431 L 990,414 L 1003,405 L 1009,402 L 1017,400 Z"/>
    <path d="M 744,340 L 738,339 L 728,343 L 710,347 L 675,350 L 647,350 L 593,346 L 592,345 L 625,277 L 625,270 L 620,266 L 603,265 L 593,267 L 581,272 L 572,280 L 539,342 L 491,341 L 471,343 L 441,349 L 415,359 L 399,369 L 391,376 L 383,386 L 376,403 L 376,418 L 378,425 L 384,435 L 396,444 L 410,448 L 427,448 L 436,446 L 444,441 L 443,438 L 427,437 L 416,433 L 410,426 L 411,414 L 423,400 L 444,388 L 461,382 L 490,376 L 511,374 L 523,375 L 503,416 L 483,463 L 473,492 L 467,520 L 467,540 L 469,548 L 474,557 L 480,563 L 491,568 L 514,568 L 527,564 L 537,559 L 552,548 L 567,533 L 572,540 L 584,545 L 598,545 L 611,539 L 617,531 L 623,514 L 635,489 L 652,462 L 665,445 L 684,427 L 685,441 L 683,456 L 686,458 L 696,456 L 709,449 L 720,439 L 728,428 L 732,418 L 733,408 L 730,400 L 726,396 L 719,393 L 706,393 L 690,399 L 675,410 L 654,433 L 653,430 L 658,417 L 658,409 L 656,405 L 651,401 L 641,398 L 631,398 L 619,401 L 609,407 L 611,411 L 611,418 L 607,430 L 581,491 L 568,507 L 550,525 L 535,535 L 526,536 L 520,530 L 520,517 L 526,493 L 543,449 L 578,375 L 613,377 L 670,376 L 696,372 L 710,368 L 726,361 L 742,348 Z"/>
    <path d="M 820,330 L 810,324 L 795,324 L 776,331 L 767,339 L 761,350 L 760,358 L 763,367 L 766,370 L 776,374 L 787,374 L 805,367 L 815,358 L 821,348 L 822,334 Z"/>
    <path d="M 512,215 L 509,215 L 507,217 L 507,228 L 504,238 L 500,245 L 487,256 L 479,259 L 468,260 L 465,262 L 467,266 L 483,268 L 493,273 L 501,282 L 505,300 L 508,302 L 512,299 L 513,286 L 520,273 L 525,268 L 533,264 L 547,262 L 549,260 L 547,256 L 533,254 L 524,249 L 519,244 L 514,232 Z M 510,240 L 511,243 L 518,252 L 528,259 L 521,263 L 513,271 L 508,281 L 500,270 L 488,263 L 497,257 L 504,250 Z"/>
    <path d="M 424,498 L 418,492 L 411,492 L 403,496 L 393,504 L 388,505 L 385,502 L 385,498 L 382,492 L 374,489 L 362,493 L 353,500 L 345,509 L 341,510 L 338,504 L 333,499 L 323,497 L 311,500 L 302,505 L 292,514 L 291,520 L 295,523 L 311,509 L 325,504 L 329,505 L 332,508 L 334,514 L 337,517 L 345,518 L 351,514 L 360,504 L 371,497 L 375,497 L 378,500 L 380,508 L 385,512 L 395,511 L 411,499 L 417,498 L 420,502 L 423,502 Z"/>
    <path d="M 737,675 L 746,681 L 758,684 L 769,683 L 785,676 L 792,682 L 805,685 L 816,682 L 825,675 L 832,679 L 844,680 L 851,677 L 857,671 L 858,668 L 857,666 L 854,666 L 846,673 L 836,674 L 830,671 L 828,668 L 824,667 L 817,674 L 809,678 L 799,678 L 794,676 L 790,672 L 789,667 L 785,666 L 777,673 L 763,678 L 752,677 L 742,672 L 738,672 Z"/>
    <path d="M 416,543 L 408,541 L 383,543 L 366,550 L 364,552 L 364,555 L 369,556 L 374,553 L 391,548 L 414,548 L 416,546 Z"/>
    <path d="M 427,570 L 424,567 L 404,568 L 387,574 L 382,577 L 380,581 L 382,583 L 385,583 L 396,577 L 411,573 L 425,574 Z"/>
    <path d="M 1091,298 L 1080,297 L 1065,300 L 1043,310 L 1042,313 L 1046,314 L 1069,305 L 1088,303 L 1091,301 Z"/>
    <path d="M 1066,274 L 1058,273 L 1043,280 L 1025,294 L 1025,297 L 1029,298 L 1041,288 L 1054,281 L 1064,278 Z"/>
    <path d="M 1241,492 L 1244,495 L 1250,493 L 1265,493 L 1278,496 L 1281,498 L 1286,496 L 1284,492 L 1266,487 L 1247,488 Z"/>
    <path d="M 1242,471 L 1246,473 L 1253,470 L 1264,468 L 1271,468 L 1284,471 L 1285,466 L 1277,463 L 1263,462 L 1247,466 Z"/>
    <path d="M 1236,515 L 1237,517 L 1248,518 L 1262,522 L 1275,529 L 1280,528 L 1280,525 L 1278,523 L 1260,515 L 1250,513 L 1238,513 Z"/>
    <path d="M 419,278 L 417,280 L 417,282 L 423,295 L 434,306 L 440,308 L 441,305 L 429,293 L 425,285 L 424,280 L 422,278 Z"/>
    <path d="M 1061,334 L 1062,335 L 1080,334 L 1081,333 L 1092,333 L 1094,334 L 1097,333 L 1098,330 L 1090,327 L 1076,327 L 1064,330 L 1061,332 Z"/>
    <path d="M 394,301 L 393,303 L 394,306 L 400,311 L 417,319 L 421,318 L 421,316 L 419,314 L 408,309 L 398,301 Z"/>
  </g>
</svg>