<svg xmlns="http://www.w3.org/2000/svg" width="1536" height="1024" viewBox="0 0 1536 1024"><defs><linearGradient id="lg" x1="0" y1="0" x2="1" y2="0" gradientUnits="objectBoundingBox"><stop offset="0%" stop-color="#4F46E5"/><stop offset="100%" stop-color="#9333EA"/></linearGradient></defs><g fill="url(#lg)" fill-rule="evenodd"><path d="m1212 468-6-11-14-10-10-3h-21l-20 6-19 11-54 42-11 6-12 2-3-3-1-8 6-23 11-25 24-45 1-7-5-7-11-5-16-1-5 1-5 4-8-7-11-5-9-2h-15l-20 5-19 10-15 12-15 16-12 17-9 16-10 25-17 18-11 9-13 6-4-1-3-5v-6l9-31 44-101 39-1 26-5 20-10 9-9 4-9-1-6h-4l-11 7-21 6-22 2h-26l-1-1 24-52 3-11-2-5-7-3-25 1-12 5-6 7-27 61-21 5-8 4-7 7-3 6 1 5 26-5 1 3-21 47-14 37-23 29-17 17-12 8h-6l-1-9 7-20 32-66 1-12-6-6-11-3-19 2-6 2-5 4v8l-26 56-14 36-2 8v13l6 12 12 6h17l13-4 20-13 15-14 12-14 1 21 2 7 7 9 10 5 21 1 11-3 19-11 20-19 4 16 4 6 6 5 10 4h18l13-4 18-11 20-19 12-15 1 3-2 17 1 7 4 9 7 7 8 4 20 1 15-4 17-9 50-41 25-14 10-3 17 1 5 4 5 10v10l-4 14-8 14-11 12-10 8-20 12-33 13-46 11-48 6-38 2-42-1-45-3-65-8-62-5h-80l-34 3-37 6-28 7-24 8-24 11-16 10-15 14-7 11-3 9 1 15 9 14 15 9 13 4 26 4h30l29-4 34-8 39-13 60-23 32-10 30-6h24v-3l-9-2h-31l-14 2-36 9-77 26-36 10-38 6-24-1-22-5-10-8-1-11 3-6 8-8 25-14 26-9 35-8 31-4 68-1 80 7 62 9 41 3h71l40-4 37-7 37-11 35-14 26-14 30-22 16-18 11-20 5-21Zm-187-67 5 5 1 6-7 8-7 12-5 12-17 24-13 15-17 15-12 6-4-1-3-3-1-8 1-1v-6l4-12 10-21 14-21 16-17 13-9 6-3 8-2Z"/><path d="m744 340-6-1-10 4-18 4-35 3h-28l-54-4-1-1 33-68v-7l-5-4-17-1-10 2-12 5-9 8-33 62-48-1-20 2-30 6-26 10-16 10-8 7-8 10-7 17v15l2 7 6 10 12 9 14 4h17l9-2 8-5-1-3-16-1-11-4-6-7 1-12 12-14 21-12 17-6 29-6 21-2 12 1-20 41-20 47-10 29-6 28v20l2 8 5 9 6 6 11 5h23l13-4 10-5 15-11 15-15 5 7 12 5h14l13-6 6-8 6-17 12-25 17-27 13-17 19-18 1 14-2 15 3 2 10-2 13-7 11-10 8-11 4-10 1-10-3-8-4-4-7-3h-13l-16 6-15 11-21 23-1-3 5-13v-8l-2-4-5-4-10-3h-10l-12 3-10 6 2 4v7l-4 12-26 61-13 16-18 18-15 10-9 1-6-6v-13l6-24 17-44 35-74 35 2 57-1 26-4 14-4 16-7 16-13Zm76-10-10-6h-15l-19 7-9 8-6 11-1 8 3 9 3 3 10 4h11l18-7 10-9 6-10 1-14ZM512 215h-3l-2 2v11l-3 10-4 7-13 11-8 3-11 1-3 2 2 4 16 2 10 5 8 9 4 18 3 2 4-3 1-13 7-13 5-5 8-4 14-2 2-2-2-4-14-2-9-5-5-5-5-12Zm-2 25 1 3 7 9 10 7-7 4-8 8-5 10-8-11-12-7 9-6 7-7Zm-86 258-6-6h-7l-8 4-10 8-5 1-3-3v-4l-3-6-8-3-12 4-9 7-8 9-4 1-3-6-5-5-10-2-12 3-9 5-10 9-1 6 4 3 16-14 14-5 4 1 3 3 2 6 3 3 8 1 6-4 9-10 11-7h4l3 3 2 8 5 4 10-1 16-12 6-1 3 4h3Zm313 177 9 6 12 3 11-1 16-7 7 6 13 3 11-3 9-7 7 4 12 1 7-3 6-6 1-3-1-2h-3l-8 7-10 1-6-3-2-3-4-1-7 7-8 4h-10l-5-2-4-4-1-5-4-1-8 7-14 5-11-1-10-5h-4ZM416 543l-8-2-25 2-17 7-2 2v3l5 1 5-3 17-5h23l2-2Zm11 27-3-3-20 1-17 6-5 3-2 4 2 2h3l11-6 15-4 14 1Zm664-272-11-1-15 3-22 10-1 3 4 1 23-9 19-2 3-2Zm-25-24-8-1-15 7-18 14v3l4 1 12-10 13-7 10-3Zm175 218 3 3 6-2h15l13 3 3 2 5-2-2-4-18-5-19 1Zm1-21 4 2 7-3 11-2h7l13 3 1-5-8-3-14-1-16 4Zm-6 44 1 2 11 1 14 4 13 7 5-1v-3l-2-2-18-8-10-2h-12ZM419 278l-2 2v2l6 13 11 11 6 2 1-3-12-12-4-8-1-5-2-2Zm642 56 1 1 18-1 1-1h11l2 1 3-1 1-3-8-3h-14l-12 3-3 2Zm-667-33-1 2 1 3 6 5 17 8 4-1v-2l-2-2-11-5-10-8Z"/></g></svg>